<?xml version="1.0" encoding="iso-8859-1"?>
<!-- Generator: Adobe Illustrator 19.0.0, SVG Export Plug-In . SVG Version: 6.00 Build 0)  -->
<svg xmlns="http://www.w3.org/2000/svg" xmlns:xlink="http://www.w3.org/1999/xlink" version="1.1" id="Layer_1" x="0px" y="0px" viewBox="0 0 512.001 512.001" style="enable-background:new 0 0 512.001 512.001;" xml:space="preserve" width="512px" height="512px">
<g>
	<g>
		<g>
			<path d="M84.183,51.134c-13.627,0-24.714,11.087-24.714,24.716v38.04c0,13.628,11.087,24.716,24.714,24.716     c13.628,0,24.716-11.087,24.716-24.716V75.851C108.899,62.222,97.812,51.134,84.183,51.134z M92.869,113.89     c0,4.789-3.896,8.686-8.686,8.686c-4.789,0-8.685-3.896-8.685-8.686V75.851c0-4.789,3.896-8.686,8.685-8.686     c4.79,0,8.686,3.897,8.686,8.686V113.89z" fill="#FFFFFF"/>
			<path d="M427.817,51.134c-13.628,0-24.716,11.087-24.716,24.716v38.04c0,13.628,11.087,24.716,24.716,24.716     c13.627,0,24.714-11.087,24.714-24.716V75.851C452.531,62.222,441.444,51.134,427.817,51.134z M436.502,113.89     c0,4.789-3.896,8.686-8.685,8.686c-4.79,0-8.686-3.896-8.686-8.686V75.851c0-4.789,3.896-8.686,8.686-8.686     c4.789,0,8.685,3.897,8.685,8.686V113.89z" fill="#FFFFFF"/>
			<path d="M450.694,19.011C435.201,1.371,417.553,0,412.514,0c-21.928,0-46.234,12.064-65.015,32.271     c-20.88,22.464-32.379,52.001-32.379,83.169v177.139c0,3.549,2.308,6.554,5.505,7.608v26.674c0,4.426,3.589,8.015,8.015,8.015     h5.819v7.681c0,17.616-14.331,31.947-31.946,31.947h-14.107c-16.226,0-29.427,13.2-29.427,29.426v10.723h-5.958V403.93     c0-16.226-13.201-29.426-29.427-29.426h-14.107c-17.615,0-31.946-14.33-31.946-31.947v-7.681h5.819     c4.426,0,8.015-3.589,8.015-8.015v-26.674c3.195-1.054,5.505-4.059,5.505-7.608V115.44c0-31.168-11.499-60.705-32.379-83.169     C145.72,12.064,121.415,0,99.486,0c-5.04,0-22.687,1.371-38.179,19.011c-14.771,16.818-22.26,42.341-22.26,75.859     c0,33.524,6.844,58.966,20.342,75.616c14.481,17.864,31.728,19.253,36.669,19.253c16.136,0,32.74-9.006,39.564-21.44     c0.664-1.016,1.77-1.619,2.988-1.619c1.965,0,3.565,1.6,3.565,3.566v122.334c0,3.549,2.308,6.553,5.504,7.608v26.674     c0,4.426,3.589,8.015,8.015,8.015h5.819v7.681c0,26.454,21.521,47.977,47.976,47.977h14.107c7.388,0,13.398,6.01,13.398,13.396     v10.723h-2.907c-4.426,0-8.015,3.587-8.015,8.015v21.013c0,13.727,9.293,25.316,21.915,28.83v39.491h16.03V472.51     c12.623-3.514,21.915-15.103,21.915-28.83v-21.013c0-4.427-3.589-8.015-8.015-8.015h-2.907V403.93     c0-7.386,6.01-13.396,13.398-13.396h14.107c26.454,0,47.976-21.522,47.976-47.977v-7.681h5.819c4.426,0,8.015-3.589,8.015-8.015     v-26.674c3.195-1.055,5.504-4.059,5.504-7.608V170.246c0-1.966,1.6-3.566,3.565-3.566c1.219,0,2.324,0.602,2.988,1.619     c6.824,12.434,23.428,21.44,39.564,21.44c4.941,0,22.188-1.388,36.669-19.253c13.497-16.65,20.342-42.092,20.342-75.616     C472.954,61.352,465.464,35.829,450.694,19.011z M175.346,318.846h-11.639v-18.252h11.639V318.846z M158.204,284.564V170.246     c0-10.805-8.791-19.596-19.595-19.596c-6.87,0-13.323,3.669-16.841,9.574c-0.088,0.149-0.171,0.298-0.248,0.45     c-4.017,7.202-15.385,13.034-25.464,13.034c-3.148,0-14.201-0.96-24.218-13.316c-10.967-13.529-16.764-36.186-16.764-65.522     C55.077,16.926,97.673,16.03,99.486,16.03c33.175,0,81.364,38.727,81.364,99.41v169.124H158.204z M269.901,443.681H269.9     c0,7.664-6.236,13.899-13.9,13.899c-7.664,0-13.9-6.234-13.9-13.899v-12.998h27.801V443.681z M348.293,318.846h-11.639v-18.252     h11.639V318.846z M415.943,173.709c-10.078,0-21.445-5.832-25.463-13.033c-0.078-0.153-0.16-0.302-0.249-0.451     c-3.518-5.905-9.971-9.574-16.841-9.574c-10.804,0-19.595,8.791-19.595,19.596v114.319h-22.646V115.44     c0-60.684,48.189-99.41,81.364-99.41c1.813,0,44.41,0.897,44.41,78.84C456.924,157.104,431.164,173.709,415.943,173.709z" fill="#FFFFFF"/>
			<path d="M171.311,248.787c-4.426,0-8.015,3.587-8.015,8.015v16.405c0,4.427,3.589,8.015,8.015,8.015     c4.426,0,8.015-3.587,8.015-8.015v-16.405C179.326,252.375,175.737,248.787,171.311,248.787z" fill="#FFFFFF"/>
			<path d="M340.69,248.787c-4.426,0-8.015,3.587-8.015,8.015v16.405c0,4.427,3.589,8.015,8.015,8.015s8.015-3.587,8.015-8.015     v-16.405C348.705,252.375,345.117,248.787,340.69,248.787z" fill="#FFFFFF"/>
		</g>
	</g>
</g>
<g>
</g>
<g>
</g>
<g>
</g>
<g>
</g>
<g>
</g>
<g>
</g>
<g>
</g>
<g>
</g>
<g>
</g>
<g>
</g>
<g>
</g>
<g>
</g>
<g>
</g>
<g>
</g>
<g>
</g>
</svg>
